<svg width="20" height="21" viewBox="0 0 20 21" fill="none" xmlns="http://www.w3.org/2000/svg">
<path d="M10.5 2.24696C10.348 2.15919 10.1755 2.11299 10 2.11299C9.82446 2.11299 9.65202 2.15919 9.5 2.24696L2 6.57696V19H6.5V13C6.5 12.7347 6.60536 12.4804 6.79289 12.2929C6.98043 12.1053 7.23478 12 7.5 12H12.5C12.7652 12 13.0196 12.1053 13.2071 12.2929C13.3946 12.4804 13.5 12.7347 13.5 13V19H18V6.57696L10.5 2.24696ZM8.5 0.514961C8.95606 0.251656 9.47339 0.113037 10 0.113037C10.5266 0.113037 11.0439 0.251656 11.5 0.514961L19 4.84496C19.304 5.02049 19.5565 5.27296 19.732 5.57699C19.9076 5.88102 20 6.2259 20 6.57696V20C20 20.2652 19.8946 20.5195 19.7071 20.7071C19.5196 20.8946 19.2652 21 19 21H12.5C12.2348 21 11.9804 20.8946 11.7929 20.7071C11.6054 20.5195 11.5 20.2652 11.5 20V14H8.5V20C8.5 20.2652 8.39464 20.5195 8.20711 20.7071C8.01957 20.8946 7.76522 21 7.5 21H1C0.734784 21 0.48043 20.8946 0.292893 20.7071C0.105357 20.5195 0 20.2652 0 20V6.57696C8.91844e-06 6.2259 0.0924258 5.88102 0.267962 5.57699C0.443498 5.27296 0.695969 5.02049 1 4.84496L8.5 0.514961Z" fill="white"/>
</svg>
