<svg width="22" height="22" viewBox="0 0 22 22" fill="none" xmlns="http://www.w3.org/2000/svg">
<path d="M9.53298 0.279076C4.35298 0.279076 0.125977 4.41908 0.125977 9.55808C0.125977 14.6971 4.35198 18.8371 9.53298 18.8371C11.767 18.8371 13.823 18.0671 15.44 16.7791L19.793 21.1321C19.8852 21.2276 19.9956 21.3038 20.1176 21.3562C20.2396 21.4086 20.3708 21.4362 20.5036 21.4373C20.6364 21.4385 20.768 21.4132 20.8909 21.3629C21.0138 21.3126 21.1255 21.2384 21.2194 21.1445C21.3133 21.0506 21.3875 20.9389 21.4378 20.816C21.4881 20.6931 21.5134 20.5615 21.5122 20.4287C21.5111 20.2959 21.4835 20.1647 21.4311 20.0427C21.3787 19.9207 21.3025 19.8103 21.207 19.7181L16.863 15.3741C18.2079 13.7344 18.942 11.6788 18.94 9.55808C18.94 4.41808 14.714 0.278076 9.53298 0.278076V0.279076ZM2.12598 9.55808C2.12598 5.55208 5.42798 2.27808 9.53298 2.27808C13.638 2.27808 16.94 5.55208 16.94 9.55808C16.94 13.5641 13.638 16.8371 9.53298 16.8371C5.42798 16.8371 2.12598 13.5651 2.12598 9.55808Z" fill="#B3B3B3"/>
</svg>
