<svg width="22" height="22" viewBox="0 0 22 22" fill="none" xmlns="http://www.w3.org/2000/svg">
<path d="M14.356 9.5581C14.356 12.1811 12.196 14.3081 9.53298 14.3081C6.86898 14.3081 4.70898 12.1811 4.70898 9.5581C4.70898 6.93511 6.86898 4.80811 9.53298 4.80811C12.197 4.80811 14.356 6.93511 14.356 9.5581Z" fill="white"/>
<path d="M0.125977 9.55808C0.125977 4.41808 4.35198 0.278076 9.53298 0.278076C14.713 0.278076 18.94 4.41808 18.94 9.55808C18.942 11.6788 18.2079 13.7344 16.863 15.3741L21.207 19.7181C21.3891 19.9067 21.4899 20.1593 21.4877 20.4215C21.4854 20.6837 21.3802 20.9345 21.1948 21.1199C21.0094 21.3053 20.7586 21.4105 20.4964 21.4128C20.2342 21.415 19.9816 21.3142 19.793 21.1321L15.44 16.7791C13.7615 18.1155 11.6785 18.8412 9.53298 18.8371C4.35298 18.8371 0.125977 14.6981 0.125977 9.55808ZM9.53298 2.27808C5.42798 2.27808 2.12598 5.55208 2.12598 9.55808C2.12598 13.5641 5.42798 16.8371 9.53298 16.8371C13.638 16.8371 16.94 13.5641 16.94 9.55708C16.94 5.55208 13.638 2.27808 9.53298 2.27808Z" fill="white"/>
</svg>
