<svg width="245" height="245" viewBox="0 0 245 245" fill="none" xmlns="http://www.w3.org/2000/svg">
<path d="M122.5 0C90.011 0 58.8526 12.9062 35.8794 35.8794C12.9062 58.8526 0 90.011 0 122.5C0 154.989 12.9062 186.147 35.8794 209.121C58.8526 232.094 90.011 245 122.5 245C154.989 245 186.147 232.094 209.121 209.121C232.094 186.147 245 154.989 245 122.5C245 90.011 232.094 58.8526 209.121 35.8794C186.147 12.9062 154.989 0 122.5 0ZM178.682 176.676C178.159 177.533 177.472 178.278 176.661 178.869C175.85 179.46 174.93 179.885 173.954 180.12C172.978 180.355 171.965 180.395 170.974 180.237C169.983 180.08 169.032 179.728 168.177 179.202C139.405 161.639 103.206 157.657 60.5609 167.412C58.5852 167.862 56.5113 167.51 54.7955 166.432C53.0797 165.353 51.8625 163.637 51.4117 161.662C50.9609 159.686 51.3135 157.612 52.3918 155.896C53.4701 154.18 55.1858 152.963 57.1616 152.512C103.834 141.855 143.861 146.433 176.14 166.171C177.867 167.23 179.104 168.93 179.58 170.898C180.057 172.867 179.734 174.945 178.682 176.676ZM193.673 143.325C192.346 145.483 190.217 147.026 187.753 147.614C185.29 148.203 182.693 147.789 180.534 146.464C147.613 126.236 97.4181 120.372 58.4631 132.193C56.0921 132.756 53.5954 132.394 51.4823 131.18C49.3692 129.965 47.799 127.991 47.0919 125.659C46.3848 123.326 46.5941 120.812 47.6771 118.629C48.7601 116.446 50.6352 114.758 52.92 113.91C97.4028 100.419 152.712 106.958 190.518 130.187C192.678 131.511 194.224 133.639 194.816 136.103C195.407 138.567 194.996 141.164 193.673 143.325ZM194.959 108.596C155.483 85.1375 90.3438 82.9784 52.6444 94.4169C49.7366 95.2981 46.5979 94.9882 43.9186 93.5553C41.2394 92.1223 39.2391 89.6837 38.3578 86.7759C37.4766 83.8682 37.7865 80.7294 39.2194 78.0502C40.6524 75.3709 43.091 73.3706 45.9987 72.4894C89.2566 59.3666 161.195 61.8931 206.658 88.8737C209.273 90.4251 211.165 92.9519 211.917 95.8982C212.67 98.8445 212.221 101.969 210.669 104.584C209.118 107.2 206.591 109.092 203.645 109.844C200.699 110.596 197.574 110.148 194.959 108.596Z" fill="#4CAF50"/>
</svg>
