<svg width="21" height="21" viewBox="0 0 21 21" fill="none" xmlns="http://www.w3.org/2000/svg">
<path d="M10.49 0.0344238C4.71419 0.0344238 0.0317383 4.71673 0.0317383 10.4926C0.0317383 16.2686 4.71419 20.9506 10.49 20.9506C16.2665 20.9506 20.9484 16.2686 20.9484 10.4926C20.9484 4.71712 16.2666 0.0344238 10.49 0.0344238ZM15.2861 15.1181C15.0988 15.4253 14.6966 15.5227 14.3894 15.3341C11.9339 13.8343 8.84275 13.4945 5.20234 14.3263C4.85156 14.4062 4.50189 14.1864 4.42194 13.8355C4.34166 13.4845 4.56058 13.1349 4.91227 13.055C8.89608 12.1448 12.3133 12.5367 15.07 14.2214C15.3772 14.41 15.4747 14.8108 15.2861 15.1181ZM16.5662 12.2704C16.3301 12.6541 15.8281 12.7752 15.4447 12.5392C12.6335 10.8113 8.34834 10.3109 5.02329 11.3202C4.59204 11.4504 4.13657 11.2074 4.0057 10.7769C3.87583 10.3457 4.11898 9.89113 4.54944 9.75998C8.34759 8.60755 13.0694 9.1658 16.2977 11.1496C16.6811 11.3856 16.8022 11.8875 16.5662 12.2704ZM16.6761 9.30515C13.3054 7.30313 7.74425 7.11905 4.5261 8.09575C4.00934 8.25249 3.46283 7.96075 3.30623 7.44399C3.14962 6.92696 3.4411 6.38084 3.95825 6.22373C7.65249 5.10226 13.7937 5.31895 17.6744 7.62269C18.1402 7.89858 18.2926 8.49891 18.0166 8.96309C17.7418 9.4279 17.1394 9.58116 16.6761 9.30515Z" fill="#777777"/>
</svg>
