<svg width="83" height="83" viewBox="0 0 83 83" fill="none" xmlns="http://www.w3.org/2000/svg">
<path d="M41.5 0C30.4935 0 19.9378 4.3723 12.1551 12.1551C4.3723 19.9378 0 30.4935 0 41.5C0 52.5065 4.3723 63.062 12.1551 70.8451C19.9378 78.6278 30.4935 83 41.5 83C52.5065 83 63.062 78.6278 70.8451 70.8451C78.6278 63.062 83 52.5065 83 41.5C83 30.4935 78.6278 19.9378 70.8451 12.1551C63.062 4.3723 52.5065 0 41.5 0ZM60.5331 59.8535C60.3559 60.1438 60.1232 60.3962 59.8484 60.5964C59.5737 60.7967 59.262 60.9406 58.9314 61.0202C58.6007 61.0999 58.2575 61.1134 57.9218 61.0599C57.5861 61.0067 57.2639 60.8874 56.9743 60.7092C47.227 54.7593 34.9637 53.4103 20.5166 56.7151C19.8472 56.8675 19.1446 56.7483 18.5634 56.3831C17.9821 56.0175 17.5697 55.4362 17.417 54.7671C17.2643 54.0977 17.3838 53.3951 17.7491 52.8137C18.1144 52.2324 18.6956 51.8201 19.365 51.6673C35.1764 48.057 48.7366 49.6079 59.6719 56.2947C60.257 56.6534 60.676 57.2293 60.8373 57.8961C60.9989 58.5631 60.8895 59.2671 60.5331 59.8535ZM65.6117 48.555C65.1621 49.2861 64.4409 49.8088 63.6061 50.008C62.7717 50.2075 61.8919 50.0673 61.1605 49.6184C50.0077 42.7657 33.0029 40.7791 19.8059 44.7837C19.0026 44.9745 18.1568 44.8518 17.4409 44.4406C16.7251 44.029 16.1931 43.3602 15.9536 42.5702C15.714 41.7798 15.7849 40.9281 16.1518 40.1886C16.5187 39.4491 17.154 38.8772 17.928 38.5899C32.9977 34.0195 51.7351 36.2348 64.5428 44.1042C65.2746 44.5527 65.7983 45.2736 65.9989 46.1084C66.1991 46.9431 66.0599 47.8229 65.6117 48.555ZM66.0473 36.7897C52.6738 28.8425 30.6063 28.111 17.8346 31.9861C16.8495 32.2847 15.7862 32.1797 14.8785 31.6942C13.9709 31.2088 13.2932 30.3826 12.9947 29.3976C12.6962 28.4125 12.8011 27.3491 13.2866 26.4415C13.772 25.5338 14.5982 24.8562 15.5832 24.5576C30.238 20.112 54.6089 20.9679 70.0107 30.1082C70.8966 30.6338 71.5375 31.4898 71.7923 32.488C72.0474 33.4861 71.8953 34.5446 71.3695 35.4305C70.8441 36.3167 69.988 36.9577 68.9899 37.2125C67.9919 37.4672 66.9332 37.3154 66.0473 36.7897Z" fill="white"/>
</svg>
